<?xml version="1.0" standalone="no"?>
<!DOCTYPE svg PUBLIC "-//W3C//DTD SVG 20010904//EN"
 "http://www.w3.org/TR/2001/REC-SVG-20010904/DTD/svg10.dtd">
<svg version="1.0" xmlns="http://www.w3.org/2000/svg"
 width="800.000000pt" height="800.000000pt" viewBox="0 0 800.000000 800.000000"
 preserveAspectRatio="xMidYMid meet">
<metadata>
Created by potrace 1.14, written by Peter Selinger 2001-2017
</metadata>
<g transform="translate(0.000000,800.000000) scale(0.100000,-0.100000)"
fill="#000000" stroke="none">
<path d="M3899 7654 c-7 -8 -19 -10 -40 -4 -16 5 -29 6 -29 2 0 -4 -21 -6 -47
-5 -27 0 -52 -1 -57 -5 -13 -8 -70 -7 -84 1 -6 4 -13 3 -17 -3 -3 -5 -26 -10
-51 -10 -25 0 -43 -4 -40 -8 2 -4 -4 -8 -15 -8 -10 0 -19 5 -19 10 0 6 -5 5
-12 -2 -7 -7 -25 -12 -41 -12 -20 0 -26 -4 -21 -12 6 -10 4 -10 -7 -3 -12 9
-34 11 -49 5 -3 -1 -12 -3 -20 -5 -38 -8 -45 -11 -52 -20 -5 -6 -8 -5 -8 3 0
10 -5 10 -20 2 -11 -6 -20 -7 -20 -3 0 4 -5 1 -10 -7 -9 -13 -10 -13 -10 0 0
11 -2 12 -8 3 -5 -7 -20 -14 -35 -15 -15 -1 -27 -7 -27 -13 0 -5 -5 -3 -10 5
-6 9 -10 11 -10 3 0 -7 -6 -10 -14 -7 -7 3 -20 -1 -27 -8 -8 -7 -25 -14 -39
-16 -14 -1 -34 -4 -45 -6 -11 -3 -24 -5 -28 -5 -5 -1 -5 -6 -1 -13 4 -7 3 -8
-5 -4 -6 4 -19 2 -28 -6 -12 -9 -15 -9 -9 0 4 6 2 12 -3 12 -6 0 -11 -5 -11
-11 0 -5 -4 -8 -9 -4 -5 3 -12 1 -16 -5 -4 -6 -11 -8 -16 -4 -6 3 -17 -2 -24
-12 -11 -15 -14 -16 -15 -4 0 12 -2 12 -9 2 -4 -8 -11 -13 -15 -13 -19 3 -27
0 -21 -8 3 -6 -3 -8 -14 -6 -10 2 -31 -3 -46 -11 -15 -8 -31 -11 -36 -8 -5 3
-9 0 -9 -6 0 -6 -4 -8 -10 -5 -5 3 -10 1 -10 -4 0 -6 -11 -11 -25 -11 -14 0
-25 -4 -25 -10 0 -5 -9 -10 -20 -10 -11 0 -20 -4 -20 -10 0 -5 -7 -7 -15 -4
-8 4 -15 2 -15 -3 0 -5 -9 -9 -21 -10 -12 -1 -28 -10 -36 -20 -8 -10 -11 -12
-8 -5 6 11 3 11 -16 0 -13 -7 -27 -17 -30 -22 -4 -5 -11 -6 -16 -3 -5 3 -15
-3 -23 -13 -8 -10 -17 -17 -22 -14 -4 3 -22 -5 -40 -17 -18 -14 -28 -17 -24
-8 4 7 1 6 -7 -3 -8 -10 -17 -15 -20 -11 -4 3 -9 -1 -13 -10 -3 -9 -12 -13
-20 -10 -8 3 -18 -4 -23 -18 -5 -13 -10 -18 -10 -11 -1 9 -10 7 -31 -8 -16
-12 -30 -18 -30 -14 0 4 -6 0 -13 -11 -8 -10 -19 -15 -25 -11 -6 3 -16 -3 -22
-14 -6 -11 -17 -20 -26 -20 -8 0 -17 -7 -20 -15 -4 -8 -10 -12 -15 -9 -5 3 -9
0 -9 -6 0 -6 -5 -8 -10 -5 -6 3 -13 -1 -16 -9 -3 -9 -10 -13 -15 -10 -5 3 -9
0 -9 -5 0 -6 -7 -11 -16 -11 -8 0 -12 -4 -9 -10 3 -5 -3 -10 -14 -10 -12 0
-21 -4 -21 -10 0 -5 -7 -10 -15 -10 -8 0 -19 -9 -25 -20 -6 -11 -16 -19 -23
-17 -7 1 -11 -3 -10 -10 2 -7 -4 -10 -12 -7 -8 4 -15 1 -15 -5 0 -6 -7 -11
-15 -11 -9 0 -12 -6 -8 -17 4 -10 2 -14 -5 -9 -6 3 -21 -4 -33 -16 -12 -13
-18 -17 -14 -9 5 9 4 12 -3 7 -7 -4 -12 -14 -12 -23 0 -9 -3 -14 -6 -10 -7 7
-22 -5 -66 -48 -17 -16 -27 -23 -23 -15 5 8 -8 -2 -28 -23 -20 -21 -37 -43
-37 -48 0 -6 -5 -7 -10 -4 -11 7 -150 -128 -150 -145 0 -6 -4 -9 -8 -8 -8 3
-102 -89 -102 -100 0 -2 -11 -15 -24 -27 -14 -13 -22 -26 -19 -29 4 -3 -1 -6
-10 -6 -9 0 -19 -5 -23 -12 -5 -7 -2 -8 7 -3 8 5 -3 -9 -23 -30 -21 -21 -35
-42 -32 -46 3 -5 -2 -9 -10 -9 -9 0 -18 -11 -22 -25 -3 -13 -15 -27 -25 -30
-10 -4 -19 -13 -19 -21 0 -8 -7 -17 -15 -20 -8 -4 -15 -13 -15 -20 0 -8 -7
-17 -15 -20 -8 -4 -12 -10 -9 -15 3 -5 0 -9 -6 -9 -6 0 -8 -4 -5 -10 3 -5 -1
-10 -10 -10 -9 0 -14 -4 -11 -9 4 -5 -8 -23 -25 -40 -17 -17 -26 -31 -20 -31
6 0 11 -5 11 -11 0 -5 -3 -8 -7 -6 -5 3 -14 -1 -21 -9 -7 -8 -10 -14 -5 -14 4
0 -2 -7 -13 -16 -10 -8 -12 -13 -4 -9 8 4 6 -1 -5 -10 -11 -9 -19 -21 -17 -26
1 -5 -2 -9 -8 -9 -5 0 -9 -6 -7 -12 1 -7 -3 -12 -10 -11 -7 2 -10 -4 -7 -12 4
-8 1 -15 -6 -15 -6 0 -8 -4 -5 -10 3 -5 1 -10 -5 -10 -6 0 -9 -4 -6 -9 3 -5
-1 -12 -10 -15 -8 -3 -12 -10 -9 -16 3 -5 3 -10 -2 -10 -4 0 -14 -15 -22 -32
-8 -18 -17 -35 -20 -38 -3 -3 -12 -16 -19 -29 -11 -19 -11 -22 0 -16 7 4 2 -3
-12 -15 -14 -12 -18 -18 -10 -14 12 6 13 5 3 -8 -7 -8 -10 -18 -6 -21 3 -4 -2
-7 -13 -7 -16 0 -17 -2 -4 -10 11 -7 11 -10 2 -10 -7 0 -10 -4 -7 -10 3 -5 2
-10 -4 -10 -6 0 -17 -17 -26 -37 -9 -21 -24 -51 -32 -66 -8 -15 -12 -35 -9
-43 4 -10 2 -12 -6 -8 -7 5 -9 0 -6 -14 3 -12 3 -20 -1 -19 -3 1 -8 -2 -9 -8
-2 -5 -8 -16 -14 -22 -6 -7 -7 -13 -3 -13 4 0 2 -7 -5 -15 -6 -8 -9 -19 -5
-25 3 -5 -2 -10 -12 -10 -15 0 -16 -2 -3 -10 10 -6 11 -10 3 -10 -7 0 -13 -11
-13 -25 0 -14 -5 -25 -11 -25 -5 0 -8 -4 -5 -8 3 -5 -1 -20 -9 -35 -8 -15 -17
-47 -20 -71 -4 -27 -13 -47 -23 -51 -14 -5 -14 -7 -2 -15 11 -7 12 -10 2 -10
-7 0 -10 -4 -7 -10 3 -5 2 -10 -2 -10 -5 0 -10 -9 -11 -20 -1 -11 -3 -29 -4
-40 -1 -11 -5 -20 -9 -20 -3 0 -5 -13 -4 -30 1 -16 -2 -27 -7 -24 -4 3 -8 -9
-8 -26 0 -17 -4 -29 -8 -26 -4 2 -7 -11 -7 -30 1 -19 -2 -34 -7 -34 -5 0 -6
-4 -3 -10 3 -5 1 -10 -6 -10 -9 0 -9 -4 1 -15 7 -8 8 -20 3 -27 -4 -7 -13 -28
-19 -46 -11 -29 -10 -33 4 -27 14 5 14 3 -1 -13 -20 -22 -22 -42 -4 -42 7 0 8
-3 2 -8 -14 -10 -39 -56 -26 -48 5 4 9 -2 8 -14 -1 -11 -5 -20 -9 -20 -4 0 -8
-5 -8 -11 0 -5 5 -7 11 -4 6 4 5 -3 -3 -14 -11 -18 -11 -23 2 -31 12 -8 12
-10 -5 -10 -17 0 -17 -2 -5 -10 10 -6 11 -10 3 -10 -13 0 -13 -26 0 -47 6 -9
3 -11 -9 -6 -14 5 -15 3 -6 -14 8 -15 8 -23 -1 -33 -10 -10 -9 -11 3 -5 13 8
13 6 2 -8 -8 -9 -11 -25 -7 -37 4 -13 2 -20 -6 -20 -10 0 -10 -3 -2 -11 6 -6
9 -18 6 -25 -3 -8 1 -14 8 -14 12 0 12 -2 1 -9 -8 -4 -12 -19 -10 -32 2 -13
-4 -29 -12 -36 -11 -9 -11 -12 -2 -13 9 0 10 -5 3 -18 -7 -13 -6 -23 1 -30 9
-9 9 -12 -1 -12 -10 0 -11 -3 -2 -14 7 -8 8 -17 3 -20 -10 -6 -9 -42 1 -52 3
-4 2 -16 -4 -27 -8 -14 -8 -18 0 -13 12 7 12 5 16 -81 2 -36 -1 -51 -9 -46 -6
3 -5 0 2 -8 6 -7 12 -17 12 -22 0 -4 -6 -5 -12 -1 -10 6 -10 5 -1 -8 7 -8 10
-18 6 -21 -3 -4 -2 -7 4 -7 12 0 11 -59 -1 -79 -7 -10 -5 -12 4 -6 9 6 11 -2
8 -33 -2 -23 1 -38 6 -35 5 4 7 -1 3 -10 -3 -9 -1 -18 6 -21 9 -3 8 -8 -3 -15
-9 -6 -10 -11 -3 -11 6 0 10 -8 9 -17 -2 -10 4 -24 13 -31 14 -10 13 -11 -4
-5 -16 5 -18 4 -9 -8 6 -8 10 -22 9 -31 -2 -10 1 -18 7 -18 5 0 7 -9 3 -19 -3
-11 -1 -23 6 -26 8 -6 8 -9 -1 -15 -8 -5 -7 -11 4 -23 10 -9 12 -18 6 -22 -6
-4 -4 -15 6 -31 12 -17 13 -24 4 -24 -9 0 -10 -3 -1 -13 6 -8 8 -17 4 -20 -3
-4 -2 -7 4 -7 5 0 10 -14 11 -31 0 -17 6 -36 12 -44 6 -7 10 -17 9 -21 -4 -25
2 -54 11 -49 5 3 8 -7 5 -25 -2 -16 0 -30 5 -30 4 0 7 -8 6 -17 -2 -10 4 -24
13 -31 12 -10 12 -12 1 -6 -13 7 -13 5 -1 -9 7 -9 10 -17 6 -17 -4 0 -2 -7 5
-15 6 -8 9 -18 6 -24 -4 -5 1 -16 9 -25 9 -8 16 -18 15 -21 -1 -25 1 -35 9
-31 5 4 7 -3 4 -14 -3 -11 0 -20 6 -20 5 0 8 -7 5 -15 -4 -8 -2 -15 4 -15 5 0
9 -8 8 -17 0 -10 5 -17 12 -15 10 2 10 -2 2 -18 -9 -16 -8 -22 5 -26 8 -3 12
-10 9 -15 -3 -5 0 -9 6 -9 6 0 9 -4 6 -8 -3 -5 2 -21 10 -36 7 -16 14 -35 14
-42 0 -8 5 -14 10 -14 6 0 10 -9 10 -20 0 -11 9 -29 19 -39 14 -14 16 -21 8
-25 -8 -3 -5 -10 8 -21 11 -9 19 -21 17 -27 -1 -5 2 -16 8 -22 5 -7 7 -16 3
-19 -3 -4 -1 -7 5 -7 7 0 12 -7 12 -15 0 -9 6 -18 14 -21 8 -3 12 -12 9 -20
-3 -7 2 -17 11 -20 9 -3 13 -10 10 -15 -3 -5 -1 -9 5 -9 6 0 7 -7 4 -17 -5
-12 -3 -14 7 -8 10 6 12 4 7 -9 -5 -13 -3 -17 7 -13 10 4 13 1 10 -7 -3 -7 2
-20 10 -29 8 -8 12 -18 8 -22 -4 -5 2 -5 12 -1 15 5 17 4 7 -8 -7 -9 -8 -17
-2 -20 5 -3 12 0 15 6 3 7 3 3 0 -9 -3 -15 -1 -23 7 -23 7 0 10 -3 6 -6 -3 -4
-1 -12 6 -20 30 -33 35 -42 30 -48 -4 -3 -2 -6 4 -6 6 0 13 -9 16 -20 3 -11
13 -20 22 -20 10 0 15 -6 13 -18 -2 -9 5 -23 17 -30 15 -10 15 -12 2 -8 -10 3
-3 -9 18 -30 20 -19 33 -39 30 -44 -3 -4 2 -10 10 -14 8 -3 15 -12 15 -21 0
-8 7 -15 16 -15 8 0 12 -4 9 -10 -3 -5 1 -10 9 -10 9 0 16 -9 16 -21 0 -11 5
-17 10 -14 6 3 10 -3 10 -15 0 -12 4 -19 9 -15 5 3 12 -3 16 -14 3 -11 12 -22
20 -25 8 -3 15 -12 15 -21 0 -8 7 -15 16 -15 8 0 13 -4 10 -8 -3 -5 5 -15 19
-22 15 -8 21 -18 18 -29 -4 -9 -3 -13 2 -9 8 8 35 -15 35 -31 0 -5 13 -18 30
-28 16 -9 30 -22 30 -28 0 -13 72 -71 83 -67 5 1 5 -2 2 -8 -9 -14 43 -62 57
-54 6 4 9 3 5 -2 -3 -5 1 -18 9 -29 8 -10 14 -15 14 -11 0 5 13 -6 29 -23 15
-16 31 -27 35 -24 3 3 6 -2 6 -13 0 -16 2 -17 10 -4 8 12 10 10 10 -8 0 -13 4
-20 10 -17 5 3 10 2 10 -4 0 -5 9 -13 20 -16 11 -3 20 -13 20 -21 0 -8 4 -13
8 -10 5 3 19 -6 31 -20 12 -14 26 -22 31 -19 6 3 10 -1 10 -9 0 -14 12 -20 33
-17 4 0 7 -3 7 -7 0 -5 7 -17 16 -28 8 -10 13 -13 9 -6 -11 22 6 13 35 -18 16
-17 31 -31 34 -30 20 1 27 -1 22 -8 -2 -4 10 -14 27 -22 18 -7 39 -22 49 -32
12 -14 17 -16 21 -6 3 8 6 5 6 -6 1 -11 4 -17 7 -13 4 3 15 -4 26 -16 11 -12
17 -16 13 -9 -3 6 -1 12 4 12 6 0 11 -7 11 -15 0 -9 6 -12 17 -8 11 4 14 3 9
-5 -6 -11 5 -17 27 -13 4 0 7 -3 7 -9 0 -5 7 -10 15 -10 9 0 18 -7 22 -16 3
-8 12 -13 20 -10 7 3 16 -1 19 -8 3 -8 14 -13 25 -11 11 2 17 0 14 -6 -4 -5 1
-9 10 -9 9 0 13 -4 10 -10 -3 -6 5 -10 19 -10 14 0 31 -9 40 -22 11 -15 16
-18 16 -8 0 10 3 11 8 4 4 -6 22 -17 40 -25 17 -8 32 -17 32 -21 0 -4 6 -5 14
-2 8 3 17 0 21 -5 3 -6 11 -9 16 -6 5 4 12 -1 15 -10 6 -13 8 -14 15 -3 7 10
9 9 9 -5 0 -10 5 -15 10 -12 6 3 10 0 10 -7 0 -9 3 -9 10 2 7 11 10 11 10 2 0
-7 4 -10 10 -7 5 3 10 2 10 -2 0 -5 9 -14 21 -21 14 -9 19 -10 14 -2 -5 8 0 8
16 -1 13 -7 27 -12 32 -11 4 1 7 -2 7 -6 0 -5 6 -9 13 -10 38 -3 53 -9 65 -22
12 -13 13 -13 6 0 -7 13 -5 13 9 2 9 -8 22 -10 28 -6 8 4 9 3 5 -4 -7 -12 4
-15 46 -15 10 0 15 -4 11 -10 -4 -6 0 -8 10 -4 10 3 17 2 17 -4 0 -6 4 -8 9
-5 5 4 12 0 14 -6 4 -10 6 -10 6 0 1 10 5 10 17 -2 8 -9 20 -14 25 -11 5 4 9
1 9 -4 0 -6 5 -11 11 -11 5 0 7 6 3 13 -5 8 -2 7 9 -2 10 -8 20 -11 24 -7 3 3
15 -1 25 -11 12 -10 18 -12 18 -4 0 9 5 8 15 -2 8 -9 26 -14 40 -13 14 2 22
-1 18 -7 -4 -6 2 -8 15 -5 13 4 22 1 22 -5 0 -7 5 -5 10 3 7 12 10 12 10 1 0
-8 6 -11 16 -7 8 3 12 2 9 -4 -4 -6 6 -8 24 -6 17 2 31 -1 31 -6 0 -5 9 -6 20
-3 11 3 20 2 20 -4 0 -5 10 -8 22 -6 12 3 31 -3 42 -13 11 -9 17 -12 13 -6 -4
8 5 11 27 10 19 0 32 -4 30 -8 -3 -4 4 -6 13 -6 10 0 31 -3 47 -7 22 -6 27 -5
21 5 -6 9 -3 10 12 1 11 -6 23 -7 27 -4 3 3 6 1 6 -7 0 -10 4 -10 17 1 11 9
14 10 9 2 -5 -9 0 -13 16 -13 81 0 108 -4 108 -14 0 -6 4 -5 9 3 7 11 13 12
23 3 11 -9 17 -9 26 0 7 7 12 8 12 2 0 -5 11 -11 26 -12 18 -1 23 2 18 11 -6
8 -3 8 9 -1 9 -8 25 -11 38 -7 12 4 19 3 16 -2 -4 -5 0 -10 8 -10 8 0 12 3 10
7 -5 8 112 3 134 -5 12 -5 12 -3 0 11 -13 16 -12 16 9 5 17 -9 27 -9 37 -1 10
8 15 8 21 -1 5 -8 3 -9 -6 -4 -9 5 -11 4 -6 -4 4 -6 13 -8 19 -4 6 4 24 6 40
5 15 -1 34 1 40 5 20 13 41 12 49 0 6 -9 8 -8 8 3 0 13 1 13 10 0 7 -10 10
-11 10 -2 0 8 9 11 24 8 16 -3 27 1 30 11 4 10 10 12 19 6 18 -14 59 -14 76 0
12 10 13 9 6 -3 -6 -12 -5 -13 5 -3 10 9 18 9 33 1 16 -8 19 -8 14 5 -5 13 -1
14 24 7 20 -6 27 -5 23 2 -4 6 1 8 15 3 14 -4 21 -2 21 7 0 10 3 9 10 -2 7
-10 10 -11 10 -2 0 8 8 10 25 6 14 -3 25 -2 25 4 0 6 9 8 21 5 12 -4 25 0 30
8 8 12 11 12 19 -1 6 -10 10 -11 10 -2 0 6 11 12 24 12 14 0 28 5 31 10 5 8
11 7 21 -1 11 -9 14 -9 14 0 0 7 5 9 10 6 6 -3 10 -2 10 3 0 6 10 8 22 4 15
-4 19 -2 13 7 -6 10 -3 11 15 1 18 -10 21 -9 15 1 -6 9 -2 11 13 7 12 -4 22
-2 22 4 0 5 5 6 10 3 6 -3 10 -2 10 3 0 5 10 9 23 8 12 -1 28 5 36 12 12 11
15 11 22 0 7 -10 9 -10 9 0 0 6 3 11 8 10 11 -4 101 25 97 31 -2 4 8 7 22 8
14 0 29 7 34 15 6 9 9 9 9 1 0 -7 7 -10 15 -7 8 4 12 10 9 15 -3 6 6 8 20 5
18 -3 24 -1 20 6 -5 7 0 9 14 6 12 -4 25 -1 29 4 4 7 1 8 -7 3 -8 -5 -11 -4
-6 3 4 6 13 9 21 5 8 -3 15 0 15 6 0 6 6 8 14 5 8 -3 17 0 21 5 3 6 10 9 14 6
5 -2 16 4 25 14 10 11 25 17 37 14 11 -3 19 0 19 6 0 7 5 9 10 6 6 -3 10 -1
10 6 0 7 3 9 7 6 3 -4 12 -2 20 4 7 6 13 8 13 3 0 -4 7 1 16 12 8 10 13 13 9
7 -4 -9 -1 -11 9 -7 9 3 13 11 9 17 -3 6 -1 7 6 3 6 -4 18 0 27 8 9 9 20 14
25 11 5 -4 9 -1 9 4 0 6 3 10 8 10 20 -3 32 2 26 13 -4 6 -3 8 4 4 6 -3 18 1
26 10 9 8 16 12 16 9 0 -4 24 7 54 23 30 17 57 28 61 24 5 -4 4 -1 0 7 -6 11
-4 13 8 8 10 -4 16 -2 14 6 -1 6 8 13 21 15 12 2 22 10 22 18 0 9 5 12 12 8 6
-4 16 0 22 8 6 8 16 17 21 19 6 2 9 7 8 10 -1 4 5 6 15 5 9 0 16 4 15 11 -2 7
4 10 12 7 8 -4 15 -1 15 6 0 7 7 10 15 6 8 -3 14 -2 12 2 -1 4 3 8 8 10 6 2
14 10 18 18 5 8 12 12 18 9 5 -4 9 -1 9 4 0 6 5 11 11 11 16 0 39 26 31 35 -4
5 -2 5 4 2 11 -6 65 28 72 45 2 5 8 8 13 8 10 0 49 37 48 46 0 3 3 9 7 12 4 4
4 1 0 -5 -15 -26 10 -12 38 22 16 19 34 35 39 35 5 0 20 11 33 26 13 14 24 21
24 17 1 -4 7 3 15 17 7 14 16 24 19 23 10 -5 45 35 38 43 -4 4 -2 4 5 0 12 -7
103 76 103 95 0 5 4 8 8 5 5 -3 14 4 22 14 8 10 18 16 23 13 6 -3 7 -1 3 5 -3
6 1 17 9 25 8 9 15 20 15 26 0 6 3 10 8 9 10 -4 62 47 62 61 0 7 5 9 10 6 6
-3 10 1 10 9 0 8 10 22 23 31 12 8 22 19 22 23 0 5 13 20 29 35 16 15 25 27
21 27 -4 0 4 12 18 26 15 15 24 30 22 34 -3 5 4 11 15 15 11 4 18 10 15 15 -3
5 5 16 17 24 12 9 19 18 16 22 -4 3 4 16 17 28 13 12 25 28 27 36 2 7 10 21
18 31 46 54 62 83 52 94 -4 5 -1 5 6 1 8 -5 16 3 23 23 6 17 15 31 21 31 5 0
6 5 3 10 -3 6 -1 10 5 10 6 0 9 4 6 9 -3 5 1 12 10 15 8 3 12 10 9 16 -3 5 -1
10 5 10 6 0 8 5 5 10 -3 6 -1 10 4 10 6 0 11 6 11 13 0 8 9 24 20 37 22 25 27
45 8 34 -7 -4 -8 -3 -4 4 4 7 14 12 22 12 8 0 12 5 9 10 -3 6 -1 10 4 10 6 0
11 5 11 11 0 5 -6 7 -12 4 -7 -4 -4 1 6 9 11 9 16 16 11 16 -5 0 0 7 11 16 10
8 13 13 7 9 -18 -9 -16 -2 7 25 12 13 18 30 15 37 -2 8 -1 12 4 9 5 -3 12 1
15 10 4 10 2 13 -7 9 -6 -4 -1 2 12 13 15 12 19 21 12 23 -8 3 -5 12 9 26 23
25 26 37 8 28 -7 -4 -5 0 6 9 10 8 15 19 11 25 -3 6 -1 11 5 11 6 0 8 4 5 10
-3 6 -1 10 4 10 6 0 11 11 11 25 0 14 5 25 11 25 5 0 7 4 4 10 -3 5 -2 10 4
10 6 0 8 6 5 14 -3 7 2 21 11 30 9 9 14 16 11 16 -3 0 2 19 10 43 8 23 13 50
11 59 -3 10 0 15 7 12 7 -3 13 7 14 22 1 15 8 34 15 42 10 13 9 14 -1 8 -7 -4
-3 9 8 28 11 21 15 36 9 36 -8 0 -8 4 -2 13 18 24 34 69 22 61 -8 -5 -9 -3 -3
7 9 14 14 34 16 57 1 6 5 12 9 12 5 0 6 7 3 15 -4 8 -1 15 5 15 6 0 11 5 11
11 0 5 -6 7 -12 3 -9 -5 -9 -2 1 9 7 9 10 17 6 17 -4 0 -2 7 5 15 10 12 10 15
-1 15 -11 0 -11 2 -1 8 7 5 14 24 16 44 2 19 6 40 10 47 4 6 1 11 -6 11 -8 0
-9 3 -3 8 6 4 11 12 11 17 1 6 5 21 9 34 5 17 4 21 -5 16 -7 -5 -6 2 3 16 8
13 14 39 13 57 0 17 2 32 6 32 4 0 5 6 2 14 -3 8 -1 24 6 35 6 12 7 21 2 21
-5 0 -9 7 -9 15 0 8 4 15 8 15 4 0 6 9 4 20 -2 11 0 20 5 20 4 0 4 16 0 35 -5
24 -4 35 4 35 6 0 4 5 -4 10 -12 8 -12 10 -1 10 10 0 11 3 2 14 -9 10 -9 15
-1 18 14 4 20 52 9 69 -4 7 -3 21 2 31 7 13 6 18 -2 18 -7 0 -8 5 -2 13 10 15
10 97 0 115 -5 7 -3 12 4 12 9 0 9 3 0 14 -9 11 -9 15 1 19 11 4 11 6 0 6 -8
1 -10 7 -5 19 12 24 10 47 -6 66 -11 13 -11 16 0 16 11 0 11 2 -1 10 -8 5 -10
10 -4 10 8 0 9 11 4 35 -5 23 -4 36 4 39 8 3 7 5 -1 5 -7 1 -10 8 -7 16 4 8 1
15 -6 15 -9 0 -10 3 -1 13 6 8 9 16 6 19 -3 3 -8 29 -10 59 -7 70 -9 82 -18
97 -5 7 -3 12 5 12 9 0 10 3 2 8 -6 4 -10 15 -8 25 1 9 -3 17 -9 17 -7 0 -5 5
3 10 13 9 13 10 0 10 -12 0 -12 2 -2 9 11 7 10 9 -3 14 -12 5 -14 11 -5 26 7
13 7 22 0 26 -5 3 -10 16 -10 29 0 12 -6 28 -12 35 -11 11 -10 12 2 6 13 -8
13 -7 0 10 -8 10 -14 20 -12 22 1 1 2 18 2 36 0 24 -3 28 -10 17 -7 -11 -8 -6
-5 18 2 17 0 32 -5 32 -4 0 -6 8 -3 19 2 10 -1 24 -9 32 -7 8 -13 26 -12 42 1
15 -3 27 -7 27 -5 0 -9 8 -9 19 0 10 -7 31 -15 47 -11 21 -11 30 -2 36 8 5 7
9 -4 13 -8 3 -16 17 -17 32 -1 15 -8 30 -15 35 -6 4 -8 8 -3 8 5 0 1 10 -10
22 -10 12 -13 18 -6 14 6 -4 12 -2 12 3 0 6 -4 11 -10 11 -5 0 -6 7 -3 17 4
11 3 14 -5 9 -8 -5 -10 -2 -6 8 4 9 1 16 -6 16 -7 0 -10 7 -6 15 3 8 1 15 -5
15 -6 0 -9 6 -6 14 3 8 1 16 -4 18 -5 2 -11 13 -12 26 0 12 -5 22 -9 22 -4 0
-8 12 -8 26 0 14 -4 23 -10 19 -5 -3 -10 3 -10 14 0 12 -4 21 -10 21 -5 0 -9
3 -8 8 3 16 -16 68 -29 77 -8 6 -15 20 -16 33 0 12 -5 22 -9 22 -4 0 -8 7 -8
15 0 8 -5 15 -12 15 -6 0 -8 3 -5 7 4 3 0 17 -8 30 -9 13 -13 29 -9 35 5 7 3
8 -5 4 -8 -5 -14 0 -18 13 -3 11 -9 18 -14 15 -5 -3 -6 1 -3 9 3 8 -2 22 -11
31 -9 9 -13 16 -8 16 4 0 1 6 -8 13 -16 12 -19 18 -19 38 0 5 -5 7 -12 3 -6
-4 -8 -3 -4 4 3 6 1 16 -6 24 -7 7 -14 19 -16 26 -1 7 -11 23 -22 35 -11 11
-20 27 -20 34 0 7 -4 13 -9 13 -5 0 -13 9 -16 20 -4 11 -18 32 -31 45 -14 14
-23 25 -20 25 8 0 -43 72 -65 93 -11 10 -17 22 -14 28 4 5 -1 9 -9 9 -9 0 -16
7 -16 15 0 8 -9 20 -20 27 -11 7 -20 17 -20 21 0 14 -27 36 -35 29 -5 -4 -5
-2 -1 5 3 6 -1 16 -10 21 -9 5 -15 12 -15 15 3 19 0 27 -7 25 -4 -2 -21 10
-37 26 -17 16 -21 23 -10 16 11 -7 4 3 -15 22 -19 20 -38 34 -42 31 -4 -2 -5
4 -1 13 5 13 3 16 -10 11 -10 -4 -17 -2 -17 5 0 15 -113 124 -125 120 -5 -2
-7 -1 -3 3 9 10 -24 45 -35 38 -6 -3 -7 -1 -4 4 8 13 -17 36 -28 25 -5 -4 -5
-2 -2 4 3 6 -3 18 -14 27 -10 9 -19 14 -19 11 0 -4 -15 10 -34 31 -19 20 -38
38 -43 38 -4 1 -7 5 -5 10 1 4 -5 7 -14 7 -8 0 -12 4 -9 10 3 6 -1 7 -9 4 -9
-3 -16 -1 -16 6 0 6 -5 8 -10 5 -6 -4 -9 -1 -8 5 2 7 -6 17 -17 23 -11 7 -24
17 -30 23 -24 25 -83 63 -89 57 -3 -4 -6 -1 -6 6 0 7 -5 9 -12 5 -6 -4 -8 -3
-5 3 4 6 -4 18 -18 27 -14 9 -25 14 -25 11 0 -5 -29 17 -55 42 -7 7 -15 9 -19
6 -3 -4 -6 -1 -6 5 0 11 -38 28 -53 24 -5 -1 -6 2 -2 8 3 5 -1 10 -10 10 -10
0 -13 5 -9 12 4 6 3 8 -3 5 -6 -4 -16 -1 -21 6 -6 7 -27 19 -47 27 -19 7 -35
17 -35 22 0 4 -7 8 -15 8 -9 0 -25 9 -37 19 -11 11 -27 17 -36 14 -11 -5 -13
-3 -7 7 5 9 4 11 -4 6 -7 -5 -20 1 -32 15 -10 12 -19 19 -19 14 0 -4 -6 -2
-13 4 -8 6 -17 8 -20 4 -4 -3 -7 -1 -7 5 0 7 -12 12 -26 12 -17 0 -23 4 -18
12 5 7 2 9 -9 5 -9 -3 -18 1 -21 9 -3 9 -12 14 -19 11 -6 -2 -18 3 -25 12 -11
13 -12 13 -7 1 4 -8 -1 -6 -9 4 -11 13 -16 15 -16 6 0 -11 -3 -11 -17 1 -30
24 -62 39 -82 39 -11 0 -21 4 -23 10 -1 5 -15 11 -30 12 -16 1 -28 6 -28 10 0
4 -9 8 -20 8 -11 0 -20 6 -20 13 0 8 -4 7 -10 -3 -5 -8 -10 -10 -10 -4 0 9
-78 40 -89 34 -2 -1 -8 4 -12 12 -7 11 -9 11 -9 0 0 -10 -3 -10 -15 1 -8 9
-26 14 -39 13 -14 -2 -27 3 -30 11 -3 8 -11 11 -16 8 -6 -4 -17 -1 -25 5 -8 6
-19 9 -24 6 -5 -4 -13 -1 -16 5 -4 5 -13 8 -20 5 -7 -2 -16 -2 -19 2 -4 3 -14
7 -24 9 -31 6 -37 8 -51 17 -11 7 -12 6 -6 -5 8 -12 6 -12 -8 0 -14 11 -17 11
-17 0 0 -11 -2 -11 -9 0 -5 8 -18 16 -28 17 -10 1 -36 6 -58 9 -22 4 -46 7
-52 8 -7 0 -13 5 -13 11 0 6 -5 4 -10 -4 -6 -10 -10 -11 -10 -3 0 7 -10 12
-22 12 -27 -1 -49 4 -63 13 -6 4 -17 3 -24 -1 -8 -5 -24 -3 -39 5 -18 9 -28
10 -33 3 -4 -8 -8 -7 -12 2 -4 9 -6 10 -6 2 -1 -9 -9 -9 -33 2 -22 9 -39 10
-50 4 -12 -7 -18 -6 -18 2 0 8 -4 8 -15 -1 -9 -7 -18 -10 -22 -6 -3 3 0 6 8 6
12 0 12 2 -1 10 -9 6 -17 5 -22 -3 -6 -9 -8 -8 -8 3 0 13 -1 13 -10 0 -9 -13
-10 -13 -10 0 0 13 -1 13 -10 0 -6 -9 -10 -11 -10 -3 0 8 -7 10 -21 5 -27 -10
-79 -3 -79 10 0 6 -6 5 -15 -2 -11 -9 -15 -9 -15 -1 0 7 -5 9 -12 4 -17 -10
-38 -13 -38 -4 0 4 -9 7 -20 7 -11 0 -20 -4 -20 -8 0 -5 -8 -4 -19 1 -10 6
-21 7 -25 4 -9 -10 -36 -13 -36 -4 0 11 -40 7 -51 -5z"/>
</g>
</svg>
